hintordertest_dmM.ufo
<glyph name="uni001E" format="2">
  <advance width="935"/>
  <unicode hex="001E"/>
  <outline>
    <contour>
      <point x="837" y="731" type="curve" smooth="yes"/>
      <point x="875" y="731"/>
      <point x="905" y="761"/>
      <point x="905" y="799" type="curve" smooth="yes"/>
      <point x="905" y="837"/>
      <point x="875" y="867"/>
      <point x="837" y="867" type="curve" smooth="yes"/>
      <point x="799" y="867"/>
      <point x="769" y="837"/>
      <point x="769" y="799" type="curve" smooth="yes"/>
      <point x="769" y="761"/>
      <point x="799" y="731"/>
    </contour>
    <contour>
      <point x="20" y="0" type="line"/>
      <point x="272" y="0" type="line"/>
      <point x="272" y="64" type="line"/>
      <point x="148" y="64" type="line"/>
      <point x="124" y="64" type="line"/>
      <point x="20" y="64" type="line"/>
    </contour>
    <contour>
      <point x="80" y="0" type="line"/>
      <point x="152" y="0" type="line"/>
      <point x="290" y="405" type="line"/>
      <point x="331" y="588" type="line"/>
      <point x="350" y="588" type="line"/>
      <point x="556" y="0" type="line"/>
      <point x="672" y="0" type="line"/>
      <point x="426" y="674" type="line"/>
      <point x="322" y="674" type="line"/>
    </contour>
    <contour>
      <point x="200" y="208" type="line"/>
      <point x="512" y="208" type="line"/>
      <point x="512" y="268" type="line"/>
      <point x="200" y="268" type="line"/>
    </contour>
    <contour>
      <point x="428" y="0" type="line"/>
      <point x="740" y="0" type="line"/>
      <point x="740" y="64" type="line"/>
      <point x="602" y="64" type="line"/>
      <point x="568" y="64" type="line"/>
      <point x="428" y="64" type="line"/>
    </contour>
  </outline>
</glyph>
<glyph name="uni001E" format="2">
  <advance width="1330"/>
  <unicode hex="001E"/>
  <outline>
    <contour>
      <point x="334" y="0" type="line"/>
      <point x="470" y="0" type="line"/>
      <point x="470" y="64" type="line"/>
      <point x="454" y="64" type="line"/>
      <point x="334" y="64" type="line"/>
    </contour>
    <contour>
      <point x="438" y="0" type="curve"/>
      <point x="546" y="0" type="line"/>
      <point x="546" y="104"/>
      <point x="546" y="208"/>
      <point x="546" y="312" type="curve" smooth="yes"/>
      <point x="546" y="360" type="line" smooth="yes"/>
      <point x="546" y="464"/>
      <point x="546" y="566"/>
      <point x="546" y="670" type="curve"/>
      <point x="438" y="670" type="line"/>
      <point x="438" y="566"/>
      <point x="438" y="464"/>
      <point x="438" y="360" type="curve" smooth="yes"/>
      <point x="438" y="312" type="line" smooth="yes"/>
      <point x="438" y="208"/>
      <point x="438" y="104"/>
    </contour>
    <contour>
      <point x="514" y="0" type="line"/>
      <point x="646" y="0" type="line" smooth="yes"/>
      <point x="822" y="0"/>
      <point x="934" y="68"/>
      <point x="934" y="192" type="curve" smooth="yes"/>
      <point x="934" y="304"/>
      <point x="822" y="340"/>
      <point x="674" y="340" type="curve"/>
      <point x="674" y="360" type="line"/>
      <point x="790" y="360"/>
      <point x="898" y="392"/>
      <point x="898" y="508" type="curve" smooth="yes"/>
      <point x="898" y="616"/>
      <point x="790" y="670"/>
      <point x="646" y="670" type="curve" smooth="yes"/>
      <point x="514" y="670" type="line"/>
      <point x="514" y="608" type="line"/>
      <point x="630" y="608" type="line" smooth="yes"/>
      <point x="734" y="608"/>
      <point x="790" y="576"/>
      <point x="790" y="496" type="curve" smooth="yes"/>
      <point x="790" y="416"/>
      <point x="734" y="378"/>
      <point x="630" y="378" type="curve" smooth="yes"/>
      <point x="492" y="378" type="line"/>
      <point x="492" y="318" type="line"/>
      <point x="638" y="318" type="line" smooth="yes"/>
      <point x="766" y="318"/>
      <point x="824" y="272"/>
      <point x="824" y="190" type="curve" smooth="yes"/>
      <point x="824" y="108"/>
      <point x="766" y="62"/>
      <point x="630" y="62" type="curve" smooth="yes"/>
      <point x="514" y="62" type="line"/>
    </contour>
    <contour>
      <point x="1056" y="726" type="line"/>
      <point x="1316" y="726" type="line"/>
      <point x="1316" y="794" type="line"/>
      <point x="1056" y="794" type="line"/>
    </contour>
    <contour>
      <point x="334" y="606" type="line"/>
      <point x="454" y="606" type="line"/>
      <point x="470" y="606" type="line"/>
      <point x="470" y="670" type="line"/>
      <point x="334" y="670" type="line"/>
    </contour>
  </outline>
</glyph>
<glyph name="uni001E" format="2">
  <advance width="947"/>
  <unicode hex="001E"/>
  <outline>
    <contour>
      <point x="809" y="782" type="curve" smooth="yes"/>
      <point x="775" y="782"/>
      <point x="751" y="806"/>
      <point x="751" y="840" type="curve" smooth="yes"/>
      <point x="751" y="874"/>
      <point x="775" y="898"/>
      <point x="809" y="898" type="curve" smooth="yes"/>
      <point x="843" y="898"/>
      <point x="867" y="874"/>
      <point x="867" y="840" type="curve" smooth="yes"/>
      <point x="867" y="806"/>
      <point x="843" y="782"/>
    </contour>
    <contour>
      <point x="809" y="738" type="curve" smooth="yes"/>
      <point x="871" y="738"/>
      <point x="917" y="782"/>
      <point x="917" y="840" type="curve" smooth="yes"/>
      <point x="917" y="898"/>
      <point x="871" y="942"/>
      <point x="809" y="942" type="curve" smooth="yes"/>
      <point x="747" y="942"/>
      <point x="701" y="898"/>
      <point x="701" y="840" type="curve" smooth="yes"/>
      <point x="701" y="782"/>
      <point x="747" y="738"/>
    </contour>
    <contour>
      <point x="416" y="-16" type="curve" smooth="yes"/>
      <point x="528" y="-16"/>
      <point x="604" y="8"/>
      <point x="644" y="28" type="curve"/>
      <point x="648" y="184" type="line"/>
      <point x="584" y="184" type="line"/>
      <point x="552" y="36" type="line"/>
      <point x="624" y="36" type="line"/>
      <point x="624" y="100" type="line"/>
      <point x="580" y="72"/>
      <point x="512" y="48"/>
      <point x="420" y="48" type="curve" smooth="yes"/>
      <point x="268" y="48"/>
      <point x="160" y="148"/>
      <point x="160" y="336" type="curve" smooth="yes"/>
      <point x="160" y="524"/>
      <point x="276" y="622"/>
      <point x="424" y="622" type="curve" smooth="yes"/>
      <point x="504" y="622"/>
      <point x="568" y="598"/>
      <point x="612" y="570" type="curve"/>
      <point x="612" y="634" type="line"/>
      <point x="540" y="634" type="line"/>
      <point x="572" y="492" type="line"/>
      <point x="636" y="492" type="line"/>
      <point x="632" y="642" type="line"/>
      <point x="592" y="662"/>
      <point x="520" y="686"/>
      <point x="424" y="686" type="curve" smooth="yes"/>
      <point x="212" y="686"/>
      <point x="48" y="556"/>
      <point x="48" y="332" type="curve" smooth="yes"/>
      <point x="48" y="108"/>
      <point x="204" y="-16"/>
    </contour>
  </outline>
</glyph>
<glyph name="uni001E" format="2">
  <advance width="1064"/>
  <unicode hex="001E"/>
  <outline>
    <contour>
      <point x="972" y="695" type="line"/>
      <point x="1048" y="695" type="line"/>
      <point x="1056" y="891" type="line"/>
      <point x="964" y="891" type="line"/>
    </contour>
    <contour>
      <point x="178" y="0" type="line"/>
      <point x="314" y="0" type="line"/>
      <point x="314" y="64" type="line"/>
      <point x="298" y="64" type="line"/>
      <point x="178" y="64" type="line"/>
    </contour>
    <contour>
      <point x="282" y="0" type="curve"/>
      <point x="390" y="0" type="line"/>
      <point x="390" y="104"/>
      <point x="390" y="208"/>
      <point x="390" y="312" type="curve" smooth="yes"/>
      <point x="390" y="360" type="line" smooth="yes"/>
      <point x="390" y="464"/>
      <point x="390" y="566"/>
      <point x="390" y="670" type="curve"/>
      <point x="282" y="670" type="line"/>
      <point x="282" y="566"/>
      <point x="282" y="464"/>
      <point x="282" y="360" type="curve" smooth="yes"/>
      <point x="282" y="312" type="line" smooth="yes"/>
      <point x="282" y="208"/>
      <point x="282" y="104"/>
    </contour>
    <contour>
      <point x="358" y="0" type="line"/>
      <point x="490" y="0" type="line" smooth="yes"/>
      <point x="722" y="0"/>
      <point x="866" y="128"/>
      <point x="866" y="346" type="curve" smooth="yes"/>
      <point x="866" y="564"/>
      <point x="722" y="670"/>
      <point x="506" y="670" type="curve" smooth="yes"/>
      <point x="358" y="670" type="line"/>
      <point x="358" y="608" type="line"/>
      <point x="498" y="608" type="line" smooth="yes"/>
      <point x="658" y="608"/>
      <point x="754" y="512"/>
      <point x="754" y="342" type="curve" smooth="yes"/>
      <point x="754" y="172"/>
      <point x="658" y="62"/>
      <point x="482" y="62" type="curve" smooth="yes"/>
      <point x="358" y="62" type="line"/>
    </contour>
    <contour>
      <point x="178" y="606" type="line"/>
      <point x="298" y="606" type="line"/>
      <point x="314" y="606" type="line"/>
      <point x="314" y="670" type="line"/>
      <point x="178" y="670" type="line"/>
    </contour>
  </outline>
</glyph>
<glyph name="uni001E" format="2">
  <advance width="984"/>
  <unicode hex="001E"/>
  <outline>
    <contour>
      <point x="238" y="0" type="line"/>
      <point x="570" y="0" type="line"/>
      <point x="570" y="64" type="line"/>
      <point x="418" y="64" type="line"/>
      <point x="374" y="64" type="line"/>
      <point x="238" y="64" type="line"/>
    </contour>
    <contour>
      <point x="342" y="0" type="curve"/>
      <point x="450" y="0" type="line"/>
      <point x="450" y="104"/>
      <point x="450" y="208"/>
      <point x="450" y="312" type="curve" smooth="yes"/>
      <point x="450" y="360" type="line" smooth="yes"/>
      <point x="450" y="464"/>
      <point x="450" y="566"/>
      <point x="450" y="670" type="curve"/>
      <point x="342" y="670" type="line"/>
      <point x="342" y="566"/>
      <point x="342" y="464"/>
      <point x="342" y="360" type="curve" smooth="yes"/>
      <point x="342" y="312" type="line" smooth="yes"/>
      <point x="342" y="208"/>
      <point x="342" y="104"/>
    </contour>
    <contour>
      <point x="398" y="308" type="line"/>
      <point x="650" y="308" type="line"/>
      <point x="650" y="368" type="line"/>
      <point x="398" y="368" type="line"/>
    </contour>
    <contour>
      <point x="928" y="726" type="curve" smooth="yes"/>
      <point x="966" y="726"/>
      <point x="996" y="756"/>
      <point x="996" y="794" type="curve" smooth="yes"/>
      <point x="996" y="832"/>
      <point x="966" y="862"/>
      <point x="928" y="862" type="curve" smooth="yes"/>
      <point x="890" y="862"/>
      <point x="860" y="832"/>
      <point x="860" y="794" type="curve" smooth="yes"/>
      <point x="860" y="756"/>
      <point x="890" y="726"/>
    </contour>
    <contour>
      <point x="622" y="220" type="line"/>
      <point x="682" y="220" type="line"/>
      <point x="682" y="456" type="line"/>
      <point x="622" y="456" type="line"/>
      <point x="598" y="352" type="line"/>
      <point x="598" y="324" type="line"/>
    </contour>
    <contour>
      <point x="238" y="606" type="line"/>
      <point x="374" y="606" type="line"/>
      <point x="390" y="606" type="line"/>
      <point x="390" y="670" type="line"/>
      <point x="238" y="670" type="line"/>
    </contour>
    <contour>
      <point x="742" y="488" type="line"/>
      <point x="806" y="488" type="line"/>
      <point x="798" y="670" type="line"/>
      <point x="390" y="670" type="line"/>
      <point x="390" y="606" type="line"/>
      <point x="750" y="606" type="line"/>
      <point x="702" y="646" type="line"/>
    </contour>
  </outline>
</glyph>
<glyph name="uni001E" format="2">
  <advance width="1296"/>
  <unicode hex="001E"/>
  <outline>
    <contour>
      <point x="1068" y="718" type="curve" smooth="yes"/>
      <point x="1104" y="718"/>
      <point x="1132" y="746"/>
      <point x="1132" y="782" type="curve" smooth="yes"/>
      <point x="1132" y="818"/>
      <point x="1104" y="846"/>
      <point x="1068" y="846" type="curve" smooth="yes"/>
      <point x="1032" y="846"/>
      <point x="1004" y="818"/>
      <point x="1004" y="782" type="curve" smooth="yes"/>
      <point x="1004" y="746"/>
      <point x="1032" y="718"/>
    </contour>
    <contour>
      <point x="1284" y="718" type="curve" smooth="yes"/>
      <point x="1320" y="718"/>
      <point x="1348" y="746"/>
      <point x="1348" y="782" type="curve" smooth="yes"/>
      <point x="1348" y="818"/>
      <point x="1320" y="846"/>
      <point x="1284" y="846" type="curve" smooth="yes"/>
      <point x="1248" y="846"/>
      <point x="1220" y="818"/>
      <point x="1220" y="782" type="curve" smooth="yes"/>
      <point x="1220" y="746"/>
      <point x="1248" y="718"/>
    </contour>
    <contour>
      <point x="585" y="-132" type="curve" smooth="yes"/>
      <point x="649" y="-132"/>
      <point x="693" y="-108"/>
      <point x="723" y="-72" type="curve" smooth="yes"/>
      <point x="763" y="-24"/>
      <point x="783" y="32"/>
      <point x="783" y="157" type="curve" smooth="yes"/>
      <point x="783" y="360" type="line" smooth="yes"/>
      <point x="783" y="464"/>
      <point x="783" y="566"/>
      <point x="783" y="670" type="curve"/>
      <point x="675" y="670" type="line"/>
      <point x="675" y="459"/>
      <point x="675" y="251"/>
      <point x="675" y="116" type="curve" smooth="yes"/>
      <point x="675" y="-32"/>
      <point x="671" y="-54"/>
      <point x="655" y="-89" type="curve"/>
      <point x="669" y="-80" type="line"/>
      <point x="629" y="-80" type="line"/>
      <point x="654" y="-88" type="line"/>
      <point x="631" y="-65" type="line" smooth="yes"/>
      <point x="607" y="-41"/>
      <point x="590" y="-32"/>
      <point x="558" y="-32" type="curve" smooth="yes"/>
      <point x="519" y="-32"/>
      <point x="497" y="-49"/>
      <point x="493" y="-84" type="curve"/>
      <point x="500" y="-117"/>
      <point x="530" y="-132"/>
    </contour>
    <contour>
      <point x="555" y="606" type="line"/>
      <point x="707" y="606" type="line"/>
      <point x="751" y="606" type="line"/>
      <point x="887" y="606" type="line"/>
      <point x="887" y="670" type="line"/>
      <point x="555" y="670" type="line"/>
    </contour>
  </outline>
</glyph>
<glyph name="uni001E" format="2">
  <advance width="1195"/>
  <unicode hex="001E"/>
  <outline>
    <contour>
      <point x="32" y="0" type="line"/>
      <point x="312" y="0" type="line"/>
      <point x="312" y="64" type="line"/>
      <point x="188" y="64" type="line"/>
      <point x="152" y="64" type="line"/>
      <point x="32" y="64" type="line"/>
    </contour>
    <contour>
      <point x="32" y="606" type="line"/>
      <point x="152" y="606" type="line"/>
      <point x="168" y="606" type="line"/>
      <point x="168" y="670" type="line"/>
      <point x="32" y="670" type="line"/>
    </contour>
    <contour>
      <point x="1057" y="764" type="curve" smooth="yes"/>
      <point x="1023" y="764"/>
      <point x="999" y="788"/>
      <point x="999" y="822" type="curve" smooth="yes"/>
      <point x="999" y="856"/>
      <point x="1023" y="880"/>
      <point x="1057" y="880" type="curve" smooth="yes"/>
      <point x="1091" y="880"/>
      <point x="1115" y="856"/>
      <point x="1115" y="822" type="curve" smooth="yes"/>
      <point x="1115" y="788"/>
      <point x="1091" y="764"/>
    </contour>
    <contour>
      <point x="1057" y="720" type="curve" smooth="yes"/>
      <point x="1119" y="720"/>
      <point x="1165" y="764"/>
      <point x="1165" y="822" type="curve" smooth="yes"/>
      <point x="1165" y="880"/>
      <point x="1119" y="924"/>
      <point x="1057" y="924" type="curve" smooth="yes"/>
      <point x="995" y="924"/>
      <point x="949" y="880"/>
      <point x="949" y="822" type="curve" smooth="yes"/>
      <point x="949" y="764"/>
      <point x="995" y="720"/>
    </contour>
    <contour>
      <point x="136" y="0" type="line"/>
      <point x="204" y="0" type="line"/>
      <point x="204" y="360" type="line"/>
      <point x="181" y="670" type="line"/>
      <point x="136" y="670" type="line"/>
    </contour>
    <contour>
      <point x="426" y="0" type="line"/>
      <point x="496" y="0" type="line"/>
      <point x="629" y="328" type="line"/>
      <point x="710" y="563" type="line"/>
      <point x="755" y="563" type="line"/>
      <point x="755" y="670" type="line"/>
      <point x="698" y="670" type="line"/>
      <point x="578" y="354" type="line"/>
      <point x="489" y="120" type="line"/>
      <point x="481" y="120" type="line"/>
      <point x="265" y="670" type="line"/>
      <point x="161" y="670" type="line"/>
      <point x="161" y="563" type="line"/>
      <point x="202" y="563" type="line"/>
    </contour>
    <contour>
      <point x="616" y="0" type="line"/>
      <point x="936" y="0" type="line"/>
      <point x="936" y="64" type="line"/>
      <point x="816" y="64" type="line"/>
      <point x="740" y="64" type="line"/>
      <point x="616" y="64" type="line"/>
    </contour>
    <contour>
      <point x="724" y="0" type="curve"/>
      <point x="832" y="0" type="line"/>
      <point x="832" y="104"/>
      <point x="832" y="208"/>
      <point x="832" y="312" type="curve" smooth="yes"/>
      <point x="832" y="360" type="line" smooth="yes"/>
      <point x="832" y="464"/>
      <point x="832" y="566"/>
      <point x="832" y="670" type="curve"/>
      <point x="724" y="670" type="line"/>
      <point x="724" y="360" type="line" smooth="yes"/>
      <point x="724" y="240"/>
      <point x="724" y="120"/>
    </contour>
    <contour>
      <point x="800" y="606" type="line"/>
      <point x="816" y="606" type="line"/>
      <point x="936" y="606" type="line"/>
      <point x="936" y="670" type="line"/>
      <point x="800" y="670" type="line"/>
    </contour>
  </outline>
</glyph>
<glyph name="uni001E" format="2">
  <advance width="1050"/>
  <unicode hex="001E"/>
  <outline>
    <contour>
      <point x="182" y="0" type="line"/>
      <point x="462" y="0" type="line"/>
      <point x="462" y="64" type="line"/>
      <point x="338" y="64" type="line"/>
      <point x="302" y="64" type="line"/>
      <point x="182" y="64" type="line"/>
    </contour>
    <contour>
      <point x="286" y="0" type="line"/>
      <point x="354" y="0" type="line"/>
      <point x="354" y="295" type="line"/>
      <point x="326" y="648" type="line"/>
      <point x="286" y="648" type="line"/>
    </contour>
    <contour>
      <point x="642" y="606" type="line"/>
      <point x="766" y="606" type="line"/>
      <point x="802" y="606" type="line"/>
      <point x="918" y="606" type="line"/>
      <point x="918" y="670" type="line"/>
      <point x="642" y="670" type="line"/>
    </contour>
    <contour>
      <point x="954" y="695" type="line"/>
      <point x="1030" y="695" type="line"/>
      <point x="1038" y="891" type="line"/>
      <point x="946" y="891" type="line"/>
    </contour>
    <contour>
      <point x="754" y="-8" type="line"/>
      <point x="818" y="-8" type="line"/>
      <point x="818" y="670" type="line"/>
      <point x="750" y="670" type="line"/>
      <point x="750" y="385" type="line"/>
      <point x="768" y="140" type="line"/>
      <point x="757" y="140" type="line"/>
      <point x="380" y="670" type="line"/>
      <point x="182" y="670" type="line"/>
      <point x="182" y="606" type="line"/>
      <point x="309" y="606" type="line"/>
      <point x="309" y="563" type="line"/>
      <point x="344" y="563" type="line"/>
    </contour>
  </outline>
</glyph>
<glyph name="uni001E" format="2">
  <advance width="1174"/>
  <unicode hex="001E"/>
  <outline>
    <contour>
      <point x="864" y="747" type="curve" smooth="yes"/>
      <point x="900" y="747"/>
      <point x="928" y="775"/>
      <point x="928" y="811" type="curve" smooth="yes"/>
      <point x="928" y="847"/>
      <point x="900" y="875"/>
      <point x="864" y="875" type="curve" smooth="yes"/>
      <point x="828" y="875"/>
      <point x="800" y="847"/>
      <point x="800" y="811" type="curve" smooth="yes"/>
      <point x="800" y="775"/>
      <point x="828" y="747"/>
    </contour>
    <contour>
      <point x="1080" y="747" type="curve" smooth="yes"/>
      <point x="1116" y="747"/>
      <point x="1144" y="775"/>
      <point x="1144" y="811" type="curve" smooth="yes"/>
      <point x="1144" y="847"/>
      <point x="1116" y="875"/>
      <point x="1080" y="875" type="curve" smooth="yes"/>
      <point x="1044" y="875"/>
      <point x="1016" y="847"/>
      <point x="1016" y="811" type="curve" smooth="yes"/>
      <point x="1016" y="775"/>
      <point x="1044" y="747"/>
    </contour>
    <contour>
      <point x="384" y="-16" type="curve" smooth="yes"/>
      <point x="584" y="-16"/>
      <point x="720" y="128"/>
      <point x="720" y="340" type="curve" smooth="yes"/>
      <point x="720" y="552"/>
      <point x="584" y="686"/>
      <point x="384" y="686" type="curve" smooth="yes"/>
      <point x="184" y="686"/>
      <point x="48" y="544"/>
      <point x="48" y="332" type="curve" smooth="yes"/>
      <point x="48" y="120"/>
      <point x="184" y="-16"/>
    </contour>
    <contour>
      <point x="384" y="48" type="curve" smooth="yes"/>
      <point x="236" y="48"/>
      <point x="160" y="172"/>
      <point x="160" y="336" type="curve" smooth="yes"/>
      <point x="160" y="500"/>
      <point x="236" y="622"/>
      <point x="384" y="622" type="curve" smooth="yes"/>
      <point x="532" y="622"/>
      <point x="608" y="500"/>
      <point x="608" y="336" type="curve" smooth="yes"/>
      <point x="608" y="172"/>
      <point x="532" y="48"/>
    </contour>
  </outline>
</glyph>
<glyph name="uni001E" format="2">
  <advance width="1095"/>
  <unicode hex="001E"/>
  <outline>
    <contour>
      <point x="1010" y="771" type="curve" smooth="yes"/>
      <point x="976" y="771"/>
      <point x="952" y="795"/>
      <point x="952" y="829" type="curve" smooth="yes"/>
      <point x="952" y="863"/>
      <point x="976" y="887"/>
      <point x="1010" y="887" type="curve" smooth="yes"/>
      <point x="1044" y="887"/>
      <point x="1068" y="863"/>
      <point x="1068" y="829" type="curve" smooth="yes"/>
      <point x="1068" y="795"/>
      <point x="1044" y="771"/>
    </contour>
    <contour>
      <point x="1010" y="727" type="curve" smooth="yes"/>
      <point x="1072" y="727"/>
      <point x="1118" y="771"/>
      <point x="1118" y="829" type="curve" smooth="yes"/>
      <point x="1118" y="887"/>
      <point x="1072" y="931"/>
      <point x="1010" y="931" type="curve" smooth="yes"/>
      <point x="948" y="931"/>
      <point x="902" y="887"/>
      <point x="902" y="829" type="curve" smooth="yes"/>
      <point x="902" y="771"/>
      <point x="948" y="727"/>
    </contour>
    <contour>
      <point x="513" y="-16" type="curve" smooth="yes"/>
      <point x="673" y="-16"/>
      <point x="773" y="60"/>
      <point x="773" y="178" type="curve" smooth="yes"/>
      <point x="773" y="300"/>
      <point x="681" y="344"/>
      <point x="569" y="388" type="curve" smooth="yes"/>
      <point x="533" y="402" type="line" smooth="yes"/>
      <point x="445" y="436"/>
      <point x="409" y="462"/>
      <point x="409" y="520" type="curve" smooth="yes"/>
      <point x="409" y="578"/>
      <point x="453" y="624"/>
      <point x="545" y="624" type="curve" smooth="yes"/>
      <point x="609" y="624"/>
      <point x="657" y="602"/>
      <point x="701" y="574" type="curve"/>
      <point x="701" y="638" type="line"/>
      <point x="637" y="638" type="line"/>
      <point x="669" y="492" type="line"/>
      <point x="733" y="492" type="line"/>
      <point x="733" y="638" type="line"/>
      <point x="705" y="658"/>
      <point x="633" y="686"/>
      <point x="545" y="686" type="curve" smooth="yes"/>
      <point x="405" y="686"/>
      <point x="305" y="620"/>
      <point x="305" y="506" type="curve" smooth="yes"/>
      <point x="305" y="388"/>
      <point x="397" y="344"/>
      <point x="509" y="300" type="curve" smooth="yes"/>
      <point x="545" y="286" type="line" smooth="yes"/>
      <point x="633" y="252"/>
      <point x="669" y="224"/>
      <point x="669" y="162" type="curve" smooth="yes"/>
      <point x="669" y="100"/>
      <point x="625" y="46"/>
      <point x="513" y="46" type="curve" smooth="yes"/>
      <point x="433" y="46"/>
      <point x="377" y="72"/>
      <point x="325" y="108" type="curve"/>
      <point x="325" y="44" type="line"/>
      <point x="389" y="44" type="line"/>
      <point x="357" y="192" type="line"/>
      <point x="293" y="192" type="line"/>
      <point x="293" y="36" type="line"/>
      <point x="329" y="16"/>
      <point x="409" y="-16"/>
    </contour>
  </outline>
</glyph>
<glyph name="uni001E" format="2">
  <advance width="1537"/>
  <unicode hex="001E"/>
  <outline>
    <contour>
      <point x="823" y="-16" type="curve" smooth="yes"/>
      <point x="991" y="-16"/>
      <point x="1087" y="84"/>
      <point x="1087" y="260" type="curve" smooth="yes"/>
      <point x="1087" y="670" type="line"/>
      <point x="1019" y="670" type="line"/>
      <point x="1019" y="264" type="line" smooth="yes"/>
      <point x="1019" y="116"/>
      <point x="951" y="48"/>
      <point x="839" y="48" type="curve" smooth="yes"/>
      <point x="727" y="48"/>
      <point x="659" y="116"/>
      <point x="659" y="264" type="curve" smooth="yes"/>
      <point x="659" y="360" type="line" smooth="yes"/>
      <point x="659" y="464"/>
      <point x="659" y="566"/>
      <point x="659" y="670" type="curve"/>
      <point x="551" y="670" type="line"/>
      <point x="551" y="566"/>
      <point x="551" y="464"/>
      <point x="551" y="360" type="curve" smooth="yes"/>
      <point x="551" y="248" type="line" smooth="yes"/>
      <point x="551" y="76"/>
      <point x="655" y="-16"/>
    </contour>
    <contour>
      <point x="447" y="606" type="line"/>
      <point x="567" y="606" type="line"/>
      <point x="643" y="606" type="line"/>
      <point x="771" y="606" type="line"/>
      <point x="771" y="670" type="line"/>
      <point x="447" y="670" type="line"/>
    </contour>
    <contour>
      <point x="1312" y="718" type="curve" smooth="yes"/>
      <point x="1348" y="718"/>
      <point x="1376" y="746"/>
      <point x="1376" y="782" type="curve" smooth="yes"/>
      <point x="1376" y="818"/>
      <point x="1348" y="846"/>
      <point x="1312" y="846" type="curve" smooth="yes"/>
      <point x="1276" y="846"/>
      <point x="1248" y="818"/>
      <point x="1248" y="782" type="curve" smooth="yes"/>
      <point x="1248" y="746"/>
      <point x="1276" y="718"/>
    </contour>
    <contour>
      <point x="1528" y="718" type="curve" smooth="yes"/>
      <point x="1564" y="718"/>
      <point x="1592" y="746"/>
      <point x="1592" y="782" type="curve" smooth="yes"/>
      <point x="1592" y="818"/>
      <point x="1564" y="846"/>
      <point x="1528" y="846" type="curve" smooth="yes"/>
      <point x="1492" y="846"/>
      <point x="1464" y="818"/>
      <point x="1464" y="782" type="curve" smooth="yes"/>
      <point x="1464" y="746"/>
      <point x="1492" y="718"/>
    </contour>
    <contour>
      <point x="907" y="606" type="line"/>
      <point x="1035" y="606" type="line"/>
      <point x="1071" y="606" type="line"/>
      <point x="1187" y="606" type="line"/>
      <point x="1187" y="670" type="line"/>
      <point x="907" y="670" type="line"/>
    </contour>
  </outline>
</glyph>
<glyph name="uni001E" format="2">
  <advance width="935"/>
  <unicode hex="001E"/>
  <outline>
    <contour>
      <point x="837" y="731" type="curve" smooth="yes"/>
      <point x="875" y="731"/>
      <point x="905" y="761"/>
      <point x="905" y="799" type="curve" smooth="yes"/>
      <point x="905" y="837"/>
      <point x="875" y="867"/>
      <point x="837" y="867" type="curve" smooth="yes"/>
      <point x="799" y="867"/>
      <point x="769" y="837"/>
      <point x="769" y="799" type="curve" smooth="yes"/>
      <point x="769" y="761"/>
      <point x="799" y="731"/>
    </contour>
    <contour>
      <point x="328" y="-4" type="line"/>
      <point x="428" y="-4" type="line"/>
      <point x="672" y="670" type="line"/>
      <point x="600" y="670" type="line"/>
      <point x="486" y="340" type="line"/>
      <point x="411" y="64" type="line"/>
      <point x="400" y="64" type="line"/>
      <point x="196" y="670" type="line"/>
      <point x="80" y="670" type="line"/>
    </contour>
    <contour>
      <point x="12" y="606" type="line"/>
      <point x="128" y="606" type="line"/>
      <point x="192" y="606" type="line"/>
      <point x="328" y="606" type="line"/>
      <point x="328" y="670" type="line"/>
      <point x="12" y="670" type="line"/>
    </contour>
    <contour>
      <point x="476" y="606" type="line"/>
      <point x="596" y="606" type="line"/>
      <point x="628" y="606" type="line"/>
      <point x="732" y="606" type="line"/>
      <point x="732" y="670" type="line"/>
      <point x="476" y="670" type="line"/>
    </contour>
  </outline>
</glyph>
<glyph name="uni001E" format="2">
  <advance width="1736"/>
  <unicode hex="001E"/>
  <outline>
    <contour>
      <point x="581" y="0" type="line"/>
      <point x="690" y="0" type="line"/>
      <point x="786" y="338" type="line"/>
      <point x="838" y="578" type="line"/>
      <point x="846" y="578" type="line"/>
      <point x="979" y="0" type="line"/>
      <point x="1083" y="0" type="line"/>
      <point x="1285" y="670" type="line"/>
      <point x="1211" y="670" type="line"/>
      <point x="1126" y="362" type="line"/>
      <point x="1071" y="64" type="line"/>
      <point x="1060" y="64" type="line"/>
      <point x="903" y="670" type="line"/>
      <point x="807" y="670" type="line"/>
      <point x="724" y="365" type="line"/>
      <point x="673" y="64" type="line"/>
      <point x="662" y="64" type="line"/>
      <point x="501" y="670" type="line"/>
      <point x="389" y="670" type="line"/>
    </contour>
    <contour>
      <point x="1461" y="726" type="line"/>
      <point x="1721" y="726" type="line"/>
      <point x="1721" y="794" type="line"/>
      <point x="1461" y="794" type="line"/>
    </contour>
    <contour>
      <point x="325" y="606" type="line"/>
      <point x="425" y="606" type="line"/>
      <point x="501" y="606" type="line"/>
      <point x="613" y="606" type="line"/>
      <point x="613" y="670" type="line"/>
      <point x="325" y="670" type="line"/>
    </contour>
    <contour>
      <point x="715" y="606" type="line"/>
      <point x="827" y="606" type="line"/>
      <point x="899" y="606" type="line"/>
      <point x="1011" y="606" type="line"/>
      <point x="1011" y="670" type="line"/>
      <point x="715" y="670" type="line"/>
    </contour>
    <contour>
      <point x="1105" y="606" type="line"/>
      <point x="1209" y="606" type="line"/>
      <point x="1245" y="606" type="line"/>
      <point x="1349" y="606" type="line"/>
      <point x="1349" y="670" type="line"/>
      <point x="1105" y="670" type="line"/>
    </contour>
  </outline>
</glyph>
<glyph name="uni001E" format="2">
  <advance width="987"/>
  <unicode hex="001E"/>
  <outline>
    <contour>
      <point x="12" y="0" type="line"/>
      <point x="272" y="0" type="line"/>
      <point x="272" y="64" type="line"/>
      <point x="164" y="64" type="line"/>
      <point x="144" y="64" type="line"/>
      <point x="12" y="64" type="line"/>
    </contour>
    <contour>
      <point x="849" y="764" type="curve" smooth="yes"/>
      <point x="815" y="764"/>
      <point x="791" y="788"/>
      <point x="791" y="822" type="curve" smooth="yes"/>
      <point x="791" y="856"/>
      <point x="815" y="880"/>
      <point x="849" y="880" type="curve" smooth="yes"/>
      <point x="883" y="880"/>
      <point x="907" y="856"/>
      <point x="907" y="822" type="curve" smooth="yes"/>
      <point x="907" y="788"/>
      <point x="883" y="764"/>
    </contour>
    <contour>
      <point x="849" y="720" type="curve" smooth="yes"/>
      <point x="911" y="720"/>
      <point x="957" y="764"/>
      <point x="957" y="822" type="curve" smooth="yes"/>
      <point x="957" y="880"/>
      <point x="911" y="924"/>
      <point x="849" y="924" type="curve" smooth="yes"/>
      <point x="787" y="924"/>
      <point x="741" y="880"/>
      <point x="741" y="822" type="curve" smooth="yes"/>
      <point x="741" y="764"/>
      <point x="787" y="720"/>
    </contour>
    <contour>
      <point x="56" y="0" type="line"/>
      <point x="138" y="0" type="line"/>
      <point x="241" y="167" type="line"/>
      <point x="298" y="299" type="line"/>
      <point x="348" y="299" type="line"/>
      <point x="305" y="346" type="line"/>
    </contour>
    <contour>
      <point x="380" y="0" type="line"/>
      <point x="684" y="0" type="line"/>
      <point x="684" y="64" type="line"/>
      <point x="560" y="64" type="line"/>
      <point x="504" y="64" type="line"/>
      <point x="380" y="64" type="line"/>
    </contour>
    <contour>
      <point x="379" y="326" type="line"/>
      <point x="628" y="670" type="line"/>
      <point x="546" y="670" type="line"/>
      <point x="447" y="510" type="line"/>
      <point x="395" y="385" type="line"/>
      <point x="336" y="385" type="line"/>
    </contour>
    <contour>
      <point x="512" y="0" type="line"/>
      <point x="636" y="0" type="line"/>
      <point x="188" y="670" type="line"/>
      <point x="64" y="670" type="line"/>
    </contour>
    <contour>
      <point x="16" y="606" type="line"/>
      <point x="140" y="606" type="line"/>
      <point x="196" y="606" type="line"/>
      <point x="320" y="606" type="line"/>
      <point x="320" y="670" type="line"/>
      <point x="16" y="670" type="line"/>
    </contour>
    <contour>
      <point x="412" y="606" type="line"/>
      <point x="524" y="606" type="line"/>
      <point x="560" y="606" type="line"/>
      <point x="672" y="606" type="line"/>
      <point x="672" y="670" type="line"/>
      <point x="412" y="670" type="line"/>
    </contour>
  </outline>
</glyph>
<glyph name="uni001E" format="2">
  <advance width="1038"/>
  <unicode hex="001E"/>
  <outline>
    <contour>
      <point x="728" y="731" type="curve" smooth="yes"/>
      <point x="764" y="731"/>
      <point x="792" y="759"/>
      <point x="792" y="795" type="curve" smooth="yes"/>
      <point x="792" y="831"/>
      <point x="764" y="859"/>
      <point x="728" y="859" type="curve" smooth="yes"/>
      <point x="692" y="859"/>
      <point x="664" y="831"/>
      <point x="664" y="795" type="curve" smooth="yes"/>
      <point x="664" y="759"/>
      <point x="692" y="731"/>
    </contour>
    <contour>
      <point x="944" y="731" type="curve" smooth="yes"/>
      <point x="980" y="731"/>
      <point x="1008" y="759"/>
      <point x="1008" y="795" type="curve" smooth="yes"/>
      <point x="1008" y="831"/>
      <point x="980" y="859"/>
      <point x="944" y="859" type="curve" smooth="yes"/>
      <point x="908" y="859"/>
      <point x="880" y="831"/>
      <point x="880" y="795" type="curve" smooth="yes"/>
      <point x="880" y="759"/>
      <point x="908" y="731"/>
    </contour>
    <contour>
      <point x="28" y="0" type="line"/>
      <point x="584" y="0" type="line"/>
      <point x="592" y="192" type="line"/>
      <point x="528" y="192" type="line"/>
      <point x="488" y="24" type="line"/>
      <point x="536" y="60" type="line"/>
      <point x="323" y="60" type="line"/>
      <point x="150" y="47" type="line"/>
      <point x="150" y="89" type="line"/>
      <point x="132" y="35" type="line"/>
      <point x="568" y="622" type="line"/>
      <point x="568" y="670" type="line"/>
      <point x="52" y="670" type="line"/>
      <point x="44" y="480" type="line"/>
      <point x="108" y="480" type="line"/>
      <point x="148" y="646" type="line"/>
      <point x="100" y="610" type="line"/>
      <point x="282" y="610" type="line"/>
      <point x="445" y="623" type="line"/>
      <point x="445" y="581" type="line"/>
      <point x="463" y="635" type="line"/>
      <point x="28" y="48" type="line"/>
    </contour>
  </outline>
</glyph>
<glyph name="uni001E" format="2">
  <advance width="1055"/>
  <unicode hex="001E"/>
  <outline>
    <contour>
      <point x="969" y="577" type="curve" smooth="yes"/>
      <point x="935" y="577"/>
      <point x="911" y="601"/>
      <point x="911" y="635" type="curve" smooth="yes"/>
      <point x="911" y="669"/>
      <point x="935" y="693"/>
      <point x="969" y="693" type="curve" smooth="yes"/>
      <point x="1003" y="693"/>
      <point x="1027" y="669"/>
      <point x="1027" y="635" type="curve" smooth="yes"/>
      <point x="1027" y="601"/>
      <point x="1003" y="577"/>
    </contour>
    <contour>
      <point x="969" y="533" type="curve" smooth="yes"/>
      <point x="1031" y="533"/>
      <point x="1077" y="577"/>
      <point x="1077" y="635" type="curve" smooth="yes"/>
      <point x="1077" y="693"/>
      <point x="1031" y="737"/>
      <point x="969" y="737" type="curve" smooth="yes"/>
      <point x="907" y="737"/>
      <point x="861" y="693"/>
      <point x="861" y="635" type="curve" smooth="yes"/>
      <point x="861" y="577"/>
      <point x="907" y="533"/>
    </contour>
    <contour>
      <point x="562" y="-12" type="curve" smooth="yes"/>
      <point x="682" y="-12"/>
      <point x="735" y="44"/>
      <point x="771" y="92" type="curve"/>
      <point x="725" y="136" type="line"/>
      <point x="695" y="104"/>
      <point x="658" y="62"/>
      <point x="576" y="62" type="curve" smooth="yes"/>
      <point x="478" y="62"/>
      <point x="414" y="134"/>
      <point x="414" y="258" type="curve" smooth="yes"/>
      <point x="414" y="382"/>
      <point x="478" y="464"/>
      <point x="578" y="464" type="curve" smooth="yes"/>
      <point x="634" y="464"/>
      <point x="666" y="452"/>
      <point x="694" y="440" type="curve"/>
      <point x="626" y="504" type="line"/>
      <point x="658" y="408" type="line" smooth="yes"/>
      <point x="668" y="378"/>
      <point x="684" y="352"/>
      <point x="720" y="352" type="curve" smooth="yes"/>
      <point x="754" y="352"/>
      <point x="770" y="376"/>
      <point x="774" y="408" type="curve"/>
      <point x="754" y="464"/>
      <point x="690" y="520"/>
      <point x="562" y="520" type="curve" smooth="yes"/>
      <point x="414" y="520"/>
      <point x="310" y="404"/>
      <point x="310" y="248" type="curve" smooth="yes"/>
      <point x="310" y="92"/>
      <point x="406" y="-12"/>
    </contour>
  </outline>
</glyph>
<glyph name="uni001E" format="2">
  <advance width="1276"/>
  <unicode hex="001E"/>
  <outline>
    <contour>
      <point x="577" y="-232" type="curve" smooth="yes"/>
      <point x="721" y="-232"/>
      <point x="849" y="-155"/>
      <point x="849" y="-55" type="curve" smooth="yes"/>
      <point x="849" y="21"/>
      <point x="789" y="80"/>
      <point x="677" y="80" type="curve" smooth="yes"/>
      <point x="537" y="80" type="line" smooth="yes"/>
      <point x="477" y="80"/>
      <point x="457" y="100"/>
      <point x="457" y="128" type="curve" smooth="yes"/>
      <point x="457" y="160"/>
      <point x="477" y="176"/>
      <point x="521" y="208" type="curve"/>
      <point x="453" y="208" type="line"/>
      <point x="453" y="176" type="line"/>
      <point x="401" y="168"/>
      <point x="365" y="148"/>
      <point x="365" y="100" type="curve" smooth="yes"/>
      <point x="365" y="52"/>
      <point x="405" y="36"/>
      <point x="453" y="28" type="curve"/>
      <point x="453" y="0" type="line"/>
      <point x="476" y="0"/>
      <point x="498" y="0"/>
      <point x="521" y="0" type="curve" smooth="yes"/>
      <point x="661" y="0" type="line" smooth="yes"/>
      <point x="725" y="0"/>
      <point x="757" y="-27"/>
      <point x="757" y="-71" type="curve" smooth="yes"/>
      <point x="757" y="-123"/>
      <point x="697" y="-176"/>
      <point x="583" y="-176" type="curve" smooth="yes"/>
      <point x="469" y="-176"/>
      <point x="437" y="-131"/>
      <point x="437" y="-91" type="curve" smooth="yes"/>
      <point x="437" y="-51"/>
      <point x="461" y="-16"/>
      <point x="497" y="4" type="curve"/>
      <point x="489" y="12" type="line"/>
      <point x="389" y="-8"/>
      <point x="341" y="-43"/>
      <point x="341" y="-107" type="curve" smooth="yes"/>
      <point x="341" y="-179"/>
      <point x="433" y="-232"/>
    </contour>
    <contour>
      <point x="569" y="176" type="curve" smooth="yes"/>
      <point x="689" y="176"/>
      <point x="773" y="248"/>
      <point x="773" y="350" type="curve" smooth="yes"/>
      <point x="773" y="384"/>
      <point x="765" y="408"/>
      <point x="749" y="432" type="curve"/>
      <point x="737" y="432" type="line"/>
      <point x="717" y="480"/>
      <point x="657" y="520"/>
      <point x="569" y="520" type="curve" smooth="yes"/>
      <point x="449" y="520"/>
      <point x="365" y="448"/>
      <point x="365" y="346" type="curve" smooth="yes"/>
      <point x="365" y="244"/>
      <point x="449" y="176"/>
    </contour>
    <contour>
      <point x="569" y="232" type="curve" smooth="yes"/>
      <point x="505" y="232"/>
      <point x="461" y="276"/>
      <point x="461" y="348" type="curve" smooth="yes"/>
      <point x="461" y="420"/>
      <point x="505" y="464"/>
      <point x="569" y="464" type="curve" smooth="yes"/>
      <point x="633" y="464"/>
      <point x="677" y="420"/>
      <point x="677" y="348" type="curve" smooth="yes"/>
      <point x="677" y="276"/>
      <point x="633" y="232"/>
    </contour>
    <contour>
      <point x="993" y="561" type="line"/>
      <point x="1253" y="561" type="line"/>
      <point x="1253" y="629" type="line"/>
      <point x="993" y="629" type="line"/>
    </contour>
    <contour>
      <point x="717" y="416" type="line"/>
      <point x="869" y="416" type="line"/>
      <point x="869" y="528" type="line"/>
      <point x="821" y="528" type="line"/>
      <point x="761" y="448" type="line"/>
      <point x="717" y="448" type="line"/>
    </contour>
  </outline>
</glyph>
<glyph name="uni001E" format="2">
  <advance width="967"/>
  <unicode hex="001E"/>
  <outline>
    <contour>
      <point x="48" y="0" type="line"/>
      <point x="312" y="0" type="line"/>
      <point x="312" y="60" type="line"/>
      <point x="196" y="60" type="line"/>
      <point x="164" y="60" type="line"/>
      <point x="48" y="60" type="line"/>
    </contour>
    <contour>
      <point x="132" y="0" type="curve"/>
      <point x="228" y="0" type="line"/>
      <point x="228" y="73"/>
      <point x="228" y="147"/>
      <point x="228" y="220" type="curve" smooth="yes"/>
      <point x="228" y="397" type="line"/>
      <point x="226" y="397" type="line"/>
      <point x="228" y="618" type="line"/>
      <point x="228" y="730" type="line"/>
      <point x="188" y="730" type="line"/>
      <point x="40" y="706" type="line"/>
      <point x="40" y="658" type="line"/>
      <point x="132" y="638" type="line"/>
      <point x="132" y="220" type="line" smooth="yes"/>
      <point x="132" y="147"/>
      <point x="132" y="73"/>
    </contour>
    <contour>
      <point x="829" y="832" type="curve" smooth="yes"/>
      <point x="795" y="832"/>
      <point x="771" y="856"/>
      <point x="771" y="890" type="curve" smooth="yes"/>
      <point x="771" y="924"/>
      <point x="795" y="948"/>
      <point x="829" y="948" type="curve" smooth="yes"/>
      <point x="863" y="948"/>
      <point x="887" y="924"/>
      <point x="887" y="890" type="curve" smooth="yes"/>
      <point x="887" y="856"/>
      <point x="863" y="832"/>
    </contour>
    <contour>
      <point x="829" y="788" type="curve" smooth="yes"/>
      <point x="891" y="788"/>
      <point x="937" y="832"/>
      <point x="937" y="890" type="curve" smooth="yes"/>
      <point x="937" y="948"/>
      <point x="891" y="992"/>
      <point x="829" y="992" type="curve" smooth="yes"/>
      <point x="767" y="992"/>
      <point x="721" y="948"/>
      <point x="721" y="890" type="curve" smooth="yes"/>
      <point x="721" y="832"/>
      <point x="767" y="788"/>
    </contour>
    <contour>
      <point x="396" y="0" type="line"/>
      <point x="656" y="0" type="line"/>
      <point x="656" y="60" type="line"/>
      <point x="540" y="60" type="line"/>
      <point x="508" y="60" type="line"/>
      <point x="396" y="60" type="line"/>
    </contour>
    <contour>
      <point x="476" y="0" type="curve"/>
      <point x="572" y="0" type="line"/>
      <point x="572" y="73"/>
      <point x="572" y="147"/>
      <point x="572" y="220" type="curve" smooth="yes"/>
      <point x="572" y="352" type="line" smooth="yes"/>
      <point x="572" y="460"/>
      <point x="520" y="520"/>
      <point x="416" y="520" type="curve" smooth="yes"/>
      <point x="336" y="520"/>
      <point x="288" y="472"/>
      <point x="262" y="416" type="curve"/>
      <point x="212" y="416" type="line"/>
      <point x="212" y="368" type="line"/>
      <point x="268" y="408"/>
      <point x="328" y="436"/>
      <point x="384" y="436" type="curve" smooth="yes"/>
      <point x="448" y="436"/>
      <point x="476" y="404"/>
      <point x="476" y="328" type="curve" smooth="yes"/>
      <point x="476" y="220" type="line" smooth="yes"/>
      <point x="476" y="147"/>
      <point x="476" y="73"/>
    </contour>
  </outline>
</glyph>
<glyph name="uni001E" format="2">
  <advance width="660"/>
  <unicode hex="001E"/>
  <outline>
    <contour>
      <point x="198" y="0" type="line"/>
      <point x="462" y="0" type="line"/>
      <point x="462" y="60" type="line"/>
      <point x="346" y="60" type="line"/>
      <point x="314" y="60" type="line"/>
      <point x="198" y="60" type="line"/>
    </contour>
    <contour>
      <point x="282" y="0" type="curve"/>
      <point x="378" y="0" type="line"/>
      <point x="378" y="73"/>
      <point x="378" y="147"/>
      <point x="378" y="220" type="curve" smooth="yes"/>
      <point x="378" y="400" type="line"/>
      <point x="378" y="508" type="line"/>
      <point x="338" y="508" type="line"/>
      <point x="194" y="468" type="line"/>
      <point x="194" y="416" type="line"/>
      <point x="282" y="416" type="line"/>
      <point x="282" y="369"/>
      <point x="282" y="323"/>
      <point x="282" y="276" type="curve" smooth="yes"/>
      <point x="282" y="220" type="line" smooth="yes"/>
      <point x="282" y="147"/>
      <point x="282" y="73"/>
    </contour>
    <contour>
      <point x="564" y="805" type="line"/>
      <point x="640" y="805" type="line"/>
      <point x="648" y="1001" type="line"/>
      <point x="556" y="1001" type="line"/>
    </contour>
    <contour>
      <point x="330" y="608" type="curve" smooth="yes"/>
      <point x="368" y="608"/>
      <point x="398" y="638"/>
      <point x="398" y="676" type="curve" smooth="yes"/>
      <point x="398" y="714"/>
      <point x="368" y="744"/>
      <point x="330" y="744" type="curve" smooth="yes"/>
      <point x="292" y="744"/>
      <point x="262" y="714"/>
      <point x="262" y="676" type="curve" smooth="yes"/>
      <point x="262" y="638"/>
      <point x="292" y="608"/>
    </contour>
  </outline>
</glyph>
<glyph name="uni001E" format="2">
  <advance width="809"/>
  <unicode hex="001E"/>
  <outline>
    <contour>
      <point x="48" y="0" type="line"/>
      <point x="340" y="0" type="line"/>
      <point x="340" y="60" type="line"/>
      <point x="196" y="60" type="line"/>
      <point x="164" y="60" type="line"/>
      <point x="48" y="60" type="line"/>
    </contour>
    <contour>
      <point x="671" y="638" type="curve" smooth="yes"/>
      <point x="637" y="638"/>
      <point x="613" y="662"/>
      <point x="613" y="696" type="curve" smooth="yes"/>
      <point x="613" y="730"/>
      <point x="637" y="754"/>
      <point x="671" y="754" type="curve" smooth="yes"/>
      <point x="705" y="754"/>
      <point x="729" y="730"/>
      <point x="729" y="696" type="curve" smooth="yes"/>
      <point x="729" y="662"/>
      <point x="705" y="638"/>
    </contour>
    <contour>
      <point x="671" y="594" type="curve" smooth="yes"/>
      <point x="733" y="594"/>
      <point x="779" y="638"/>
      <point x="779" y="696" type="curve" smooth="yes"/>
      <point x="779" y="754"/>
      <point x="733" y="798"/>
      <point x="671" y="798" type="curve" smooth="yes"/>
      <point x="609" y="798"/>
      <point x="563" y="754"/>
      <point x="563" y="696" type="curve" smooth="yes"/>
      <point x="563" y="638"/>
      <point x="609" y="594"/>
    </contour>
    <contour>
      <point x="132" y="0" type="curve"/>
      <point x="228" y="0" type="line"/>
      <point x="228" y="73"/>
      <point x="228" y="147"/>
      <point x="228" y="220" type="curve" smooth="yes"/>
      <point x="228" y="360" type="line"/>
      <point x="216" y="360" type="line"/>
      <point x="208" y="508" type="line"/>
      <point x="168" y="508" type="line"/>
      <point x="44" y="468" type="line"/>
      <point x="44" y="416" type="line"/>
      <point x="132" y="416" type="line"/>
      <point x="132" y="369"/>
      <point x="132" y="323"/>
      <point x="132" y="276" type="curve" smooth="yes"/>
      <point x="132" y="220" type="line" smooth="yes"/>
      <point x="132" y="147"/>
      <point x="132" y="73"/>
    </contour>
    <contour>
      <point x="212" y="284" type="line"/>
      <point x="244" y="340"/>
      <point x="292" y="404"/>
      <point x="364" y="436" type="curve"/>
      <point x="308" y="436" type="line"/>
      <point x="328" y="416" type="line" smooth="yes"/>
      <point x="344" y="400"/>
      <point x="364" y="384"/>
      <point x="396" y="384" type="curve" smooth="yes"/>
      <point x="444" y="384"/>
      <point x="464" y="424"/>
      <point x="468" y="460" type="curve"/>
      <point x="460" y="484"/>
      <point x="436" y="516"/>
      <point x="388" y="516" type="curve" smooth="yes"/>
      <point x="316" y="516"/>
      <point x="284" y="452"/>
      <point x="244" y="364" type="curve"/>
      <point x="212" y="364" type="line"/>
    </contour>
  </outline>
</glyph>
<glyph name="uni001E" format="2">
  <advance width="788"/>
  <unicode hex="001E"/>
  <outline>
    <contour>
      <point x="698" y="575" type="line"/>
      <point x="774" y="575" type="line"/>
      <point x="782" y="771" type="line"/>
      <point x="690" y="771" type="line"/>
    </contour>
    <contour>
      <point x="378" y="-12" type="curve" smooth="yes"/>
      <point x="508" y="-12"/>
      <point x="588" y="52"/>
      <point x="588" y="144" type="curve" smooth="yes"/>
      <point x="588" y="228"/>
      <point x="524" y="269"/>
      <point x="410" y="303" type="curve" smooth="yes"/>
      <point x="390" y="309" type="line" smooth="yes"/>
      <point x="318" y="331"/>
      <point x="292" y="352"/>
      <point x="292" y="392" type="curve" smooth="yes"/>
      <point x="292" y="432"/>
      <point x="324" y="466"/>
      <point x="398" y="466" type="curve" smooth="yes"/>
      <point x="444" y="466"/>
      <point x="484" y="458"/>
      <point x="516" y="442" type="curve"/>
      <point x="516" y="480" type="line"/>
      <point x="472" y="480" type="line"/>
      <point x="496" y="364" type="line"/>
      <point x="560" y="364" type="line"/>
      <point x="560" y="488" type="line"/>
      <point x="524" y="504"/>
      <point x="460" y="520"/>
      <point x="398" y="520" type="curve" smooth="yes"/>
      <point x="276" y="520"/>
      <point x="196" y="464"/>
      <point x="196" y="376" type="curve" smooth="yes"/>
      <point x="196" y="296"/>
      <point x="256" y="255"/>
      <point x="370" y="221" type="curve" smooth="yes"/>
      <point x="390" y="215" type="line" smooth="yes"/>
      <point x="462" y="193"/>
      <point x="490" y="172"/>
      <point x="490" y="128" type="curve" smooth="yes"/>
      <point x="490" y="84"/>
      <point x="460" y="42"/>
      <point x="378" y="42" type="curve" smooth="yes"/>
      <point x="316" y="42"/>
      <point x="260" y="58"/>
      <point x="228" y="74" type="curve"/>
      <point x="228" y="28" type="line"/>
      <point x="284" y="28" type="line"/>
      <point x="256" y="152" type="line"/>
      <point x="192" y="152" type="line"/>
      <point x="196" y="20" type="line"/>
      <point x="236" y="4"/>
      <point x="300" y="-12"/>
    </contour>
  </outline>
</glyph>
<glyph name="uni001E" format="2">
  <advance width="942"/>
  <unicode hex="001E"/>
  <outline>
    <contour>
      <point x="265" y="0" type="line"/>
      <point x="361" y="0" type="line"/>
      <point x="580" y="508" type="line"/>
      <point x="500" y="508" type="line"/>
      <point x="407" y="271" type="line"/>
      <point x="352" y="56" type="line"/>
      <point x="345" y="56" type="line"/>
      <point x="180" y="508" type="line"/>
      <point x="72" y="508" type="line"/>
    </contour>
    <contour>
      <point x="24" y="452" type="line"/>
      <point x="112" y="444" type="line"/>
      <point x="184" y="444" type="line"/>
      <point x="296" y="452" type="line"/>
      <point x="296" y="508" type="line"/>
      <point x="24" y="508" type="line"/>
    </contour>
    <contour>
      <point x="652" y="589" type="line"/>
      <point x="912" y="589" type="line"/>
      <point x="912" y="657" type="line"/>
      <point x="652" y="657" type="line"/>
    </contour>
    <contour>
      <point x="392" y="452" type="line"/>
      <point x="500" y="444" type="line"/>
      <point x="540" y="444" type="line"/>
      <point x="628" y="452" type="line"/>
      <point x="628" y="508" type="line"/>
      <point x="392" y="508" type="line"/>
    </contour>
  </outline>
</glyph>
<glyph name="uni001E" format="2">
  <advance width="1476"/>
  <unicode hex="001E"/>
  <outline>
    <contour>
      <point x="1402" y="561" type="curve" smooth="yes"/>
      <point x="1368" y="561"/>
      <point x="1344" y="585"/>
      <point x="1344" y="619" type="curve" smooth="yes"/>
      <point x="1344" y="653"/>
      <point x="1368" y="677"/>
      <point x="1402" y="677" type="curve" smooth="yes"/>
      <point x="1436" y="677"/>
      <point x="1460" y="653"/>
      <point x="1460" y="619" type="curve" smooth="yes"/>
      <point x="1460" y="585"/>
      <point x="1436" y="561"/>
    </contour>
    <contour>
      <point x="1402" y="517" type="curve" smooth="yes"/>
      <point x="1464" y="517"/>
      <point x="1510" y="561"/>
      <point x="1510" y="619" type="curve" smooth="yes"/>
      <point x="1510" y="677"/>
      <point x="1464" y="721"/>
      <point x="1402" y="721" type="curve" smooth="yes"/>
      <point x="1340" y="721"/>
      <point x="1294" y="677"/>
      <point x="1294" y="619" type="curve" smooth="yes"/>
      <point x="1294" y="561"/>
      <point x="1340" y="517"/>
    </contour>
    <contour>
      <point x="522" y="0" type="line"/>
      <point x="626" y="0" type="line"/>
      <point x="706" y="231" type="line"/>
      <point x="737" y="383" type="line"/>
      <point x="745" y="383" type="line"/>
      <point x="852" y="0" type="line"/>
      <point x="948" y="0" type="line"/>
      <point x="1130" y="508" type="line"/>
      <point x="1050" y="508" type="line"/>
      <point x="973" y="256" type="line"/>
      <point x="934" y="56" type="line"/>
      <point x="926" y="56" type="line"/>
      <point x="800" y="508" type="line"/>
      <point x="728" y="508" type="line"/>
      <point x="644" y="246" type="line"/>
      <point x="604" y="56" type="line"/>
      <point x="596" y="56" type="line"/>
      <point x="474" y="508" type="line"/>
      <point x="366" y="508" type="line"/>
    </contour>
    <contour>
      <point x="318" y="452" type="line"/>
      <point x="418" y="444" type="line"/>
      <point x="458" y="444" type="line"/>
      <point x="570" y="452" type="line"/>
      <point x="570" y="508" type="line"/>
      <point x="318" y="508" type="line"/>
    </contour>
    <contour>
      <point x="638" y="452" type="line"/>
      <point x="726" y="448" type="line"/>
      <point x="802" y="448" type="line"/>
      <point x="890" y="452" type="line"/>
      <point x="890" y="508" type="line"/>
      <point x="638" y="508" type="line"/>
    </contour>
    <contour>
      <point x="962" y="452" type="line"/>
      <point x="1054" y="444" type="line"/>
      <point x="1094" y="444" type="line"/>
      <point x="1178" y="452" type="line"/>
      <point x="1178" y="508" type="line"/>
      <point x="962" y="508" type="line"/>
    </contour>
  </outline>
</glyph>
<glyph name="uni001E" format="2">
  <advance width="731"/>
  <unicode hex="001E"/>
  <outline>
    <contour>
      <point x="633" y="595" type="curve" smooth="yes"/>
      <point x="671" y="595"/>
      <point x="701" y="625"/>
      <point x="701" y="663" type="curve" smooth="yes"/>
      <point x="701" y="701"/>
      <point x="671" y="731"/>
      <point x="633" y="731" type="curve" smooth="yes"/>
      <point x="595" y="731"/>
      <point x="565" y="701"/>
      <point x="565" y="663" type="curve" smooth="yes"/>
      <point x="565" y="625"/>
      <point x="595" y="595"/>
    </contour>
    <contour>
      <point x="36" y="0" type="line"/>
      <point x="480" y="0" type="line"/>
      <point x="488" y="172" type="line"/>
      <point x="424" y="172" type="line"/>
      <point x="392" y="16" type="line"/>
      <point x="428" y="56" type="line"/>
      <point x="274" y="56" type="line"/>
      <point x="149" y="44" type="line"/>
      <point x="149" y="70" type="line"/>
      <point x="143" y="52" type="line"/>
      <point x="472" y="460" type="line"/>
      <point x="472" y="508" type="line"/>
      <point x="52" y="508" type="line"/>
      <point x="44" y="344" type="line"/>
      <point x="108" y="344" type="line"/>
      <point x="144" y="492" type="line"/>
      <point x="104" y="452" type="line"/>
      <point x="246" y="452" type="line"/>
      <point x="358" y="464" type="line"/>
      <point x="358" y="438" type="line"/>
      <point x="364" y="456" type="line"/>
      <point x="36" y="48" type="line"/>
    </contour>
  </outline>
</glyph>
